<?xml version="1.0" encoding="UTF-8"?>
<!-- Generated by Pixelmator Pro 3.5.3 -->
<svg width="2314" height="723" viewBox="0 0 2314 723" xmlns="http://www.w3.org/2000/svg">
    <g id="Group">
        <path id="Path" fill="#1a1919" stroke="none" d="M 2234.287842 638.912476 C 2226.400391 638.337524 2220.20874 637.18335 2213.996338 635.345825 C 2208.379639 633.679199 2203.817139 631.045776 2199.700439 627.025024 C 2197.671143 625.041626 2194.725342 624.033325 2192.492188 622.220825 C 2184.783691 615.970825 2177.996338 608.775024 2172.192139 600.75415 C 2170.283691 598.12085 2169.475342 594.679199 2168.242188 591.574951 C 2168.033691 591.05835 2167.975342 590.162476 2168.275391 589.80835 C 2170.962891 586.658325 2170.879639 582.150024 2173.933838 579.083374 C 2176.696289 576.30835 2178.629639 572.720825 2181.33374 569.883301 C 2183.496338 567.62085 2186.062988 565.541626 2188.817139 564.083374 C 2196.475342 560.020874 2204.346191 556.362549 2212.096191 552.470825 C 2218.496338 549.25415 2224.887939 546.025024 2231.183838 542.62085 C 2233.983643 541.108276 2236.863037 539.479126 2239.133789 537.30835 C 2242.32959 534.25415 2246.054688 533.604126 2250.062988 533.762451 C 2253.775391 533.912476 2257.496338 533.658325 2260.567139 536.99585 C 2262.087891 538.650024 2265.596191 538.324951 2267.479492 539.8125 C 2273.742188 544.75 2280.692139 549.158325 2283.779541 557.125 C 2283.942139 557.537476 2284.162842 558.016724 2284.500488 558.258301 C 2289.775391 562.008301 2291.046143 567.987549 2291.587891 573.570801 C 2292.121338 579.050049 2293.712891 583.904175 2295.967041 588.704224 C 2297.587891 592.145874 2298.608643 595.550049 2296.64209 599.19165 C 2296.504639 599.449951 2296.39624 599.791626 2296.437988 600.070801 C 2297.287842 606.087524 2292.379639 608.858276 2289.317139 612.650024 C 2288.867188 613.204224 2288.117188 613.641724 2287.421143 613.849976 C 2283.804688 614.920776 2280.037842 615.595825 2276.546143 616.979126 C 2271.183838 619.104126 2265.82959 621.366699 2260.796143 624.158325 C 2253.879639 627.987549 2247.325439 632.462524 2240.488037 636.445801 C 2238.217041 637.770874 2235.558838 638.420776 2234.287842 638.912476"/>
        <path id="path1" fill="#1a1919" stroke="none" d="M 2224.371582 60.236694 C 2226.405029 60.59082 2229.509277 60.319946 2231.609131 61.64502 C 2237.359131 65.27002 2243.04248 69.20752 2245.629883 76.045044 C 2246.330078 77.886719 2247.267578 79.632446 2248.10498 81.424194 C 2248.484131 82.244995 2249.34668 83.157471 2249.196777 83.861694 C 2248.059082 89.265869 2251.750732 92.607544 2254.200928 96.553345 C 2255.375732 98.444946 2256.321777 100.678345 2256.629883 102.857544 C 2257.53833 109.219971 2259.071777 115.290894 2261.85498 121.15332 C 2263.713379 125.078369 2264.709229 129.440796 2265.867432 133.670044 C 2266.688232 136.674194 2265.53418 138.986694 2262.72168 140.511719 C 2260.321777 141.811646 2258.03833 143.34082 2255.634277 144.640869 C 2254.871582 145.053345 2253.888428 145.203369 2253.004883 145.224121 C 2248.434082 145.315796 2243.804932 144.886719 2239.304932 145.478394 C 2233.442383 146.244995 2227.571777 147.420044 2221.905029 149.08667 C 2211.546631 152.140869 2201.313232 155.619995 2191.071777 159.057495 C 2187.03418 160.411621 2183.138428 162.194946 2179.125732 163.64502 C 2176.867432 164.46167 2174.504883 165.007446 2172.188232 165.657471 C 2171.16748 165.940796 2170.080078 166.045044 2169.121582 166.46167 C 2160.03833 170.390869 2151.10083 174.694946 2141.867432 178.236694 C 2134.655029 181.003296 2128.72583 185.732544 2122.246582 189.611694 C 2119.150879 191.46167 2115.938232 192.615845 2112.41748 193.099121 C 2110.754883 193.324219 2109.017578 193.369995 2107.455078 193.911621 C 2100.85083 196.21167 2095.888428 193.27417 2091.405029 188.978394 C 2088.121582 185.83252 2084.950928 182.882446 2080.684082 180.728271 C 2076.996582 178.869995 2074.28418 174.824219 2071.550781 171.415894 C 2069.09668 168.361694 2066.888428 165.011719 2065.146729 161.507446 C 2062.60083 156.386719 2058.550781 152.490845 2055.28833 147.974121 C 2053.754883 145.84082 2052.500732 143.474121 2050.955078 141.27832 C 2049.571777 139.311646 2049.296631 135.932495 2049.775879 133.411621 C 2051.075928 126.549194 2054.09668 120.411621 2059.688232 115.857544 C 2060.504883 115.190796 2061.300781 114.440796 2062.22998 113.978271 C 2070.400879 109.886719 2078.517578 105.665894 2086.813232 101.844971 C 2097.046631 97.124146 2107.338379 92.490845 2117.800781 88.307495 C 2125.41748 85.261719 2133.35083 83.007446 2141.134277 80.382446 C 2143.150879 79.703369 2145.113281 78.861694 2147.146729 78.253296 C 2151.650879 76.907471 2156.363281 76.09082 2160.66748 74.290894 C 2172.013428 69.536621 2184.267578 68.328369 2195.888428 64.790894 C 2205.017578 62.015869 2214.321777 61.244995 2224.371582 60.236694"/>
        <path id="path2" fill="#1a1919" stroke="none" d="M 2207.744141 249.185425 C 2206.931641 251.2146 2206.473389 252.985474 2205.573242 254.489624 C 2202.606689 259.452026 2199.244141 264.189575 2196.465088 269.247925 C 2191.044189 279.135376 2185.627441 289.043701 2180.73584 299.197876 C 2175.519287 310.03125 2171.11084 321.231201 2167.844238 332.84375 C 2167.514893 334.010376 2167.165039 335.202026 2166.61499 336.272949 C 2163.606689 342.131226 2161.92749 348.439575 2160.064941 354.706299 C 2158.948242 358.456299 2157.11084 361.989624 2155.869141 365.710449 C 2152.894287 374.635376 2150.189941 383.6521 2147.160889 392.556274 C 2144.527588 400.297852 2141.535889 407.918701 2138.831787 415.635376 C 2136.965088 420.952026 2135.564941 426.443726 2133.498291 431.677124 C 2131.619141 436.435425 2128.944092 440.877075 2126.960938 445.5979 C 2125.919189 448.072876 2125.014893 450.868774 2125.102539 453.489624 C 2125.248291 457.96875 2122.61499 461.189575 2121.119141 464.943726 C 2120.064941 467.585449 2119.448242 470.397949 2118.473389 473.072876 C 2117.394287 476.03125 2116.064941 478.897949 2114.960938 481.8479 C 2112.573242 488.252075 2109.944092 494.5896 2107.98999 501.127075 C 2105.331543 510.010376 2103.215088 519.056274 2100.852539 528.0271 C 2100.698242 528.610352 2100.477539 529.202148 2100.17334 529.7229 C 2095.527588 537.6604 2094.373291 546.606201 2092.752441 555.414551 C 2092.590088 556.314575 2092.510742 557.264648 2092.144287 558.081299 C 2088.006592 567.247925 2085.527588 576.989624 2082.790039 586.585449 C 2079.710938 597.385376 2077.80249 608.518799 2075.348389 619.502075 C 2073.752441 626.627075 2072.081787 633.735474 2070.456543 640.856201 C 2069.744141 643.960449 2069.006592 647.060425 2068.381592 650.185425 C 2067.948242 652.352051 2066.727539 653.585449 2064.681641 654.4021 C 2062.435791 655.297974 2060.23584 656.40625 2058.210938 657.7229 C 2055.777588 659.302124 2053.444092 659.497925 2050.869141 658.260376 C 2046.331787 656.085449 2041.773438 653.947876 2037.210938 651.814575 C 2034.189941 650.397949 2031.269287 648.4021 2028.085938 647.764526 C 2021.873291 646.518799 2018.67334 641.981323 2015.085938 637.622925 C 2013.777588 636.0354 2012.106689 634.697876 2010.452393 633.443726 C 2006.223389 630.227051 2001.290039 627.681274 1997.806641 623.814575 C 1994.469238 620.106323 1992.389893 615.177124 1990.210938 610.568726 C 1989.535889 609.147949 1990.04834 606.935425 1990.544189 605.239624 C 1992.156738 599.702026 1994.019287 594.239624 1995.777588 588.743774 C 1996.056641 587.877075 1996.090088 586.852051 1996.590088 586.147949 C 2002.885742 577.293701 2005.077393 566.647949 2009.435791 556.952026 C 2009.560791 556.672852 2009.719238 556.385376 2009.73999 556.0896 C 2010.23999 549.135376 2013.92334 543.135376 2015.631592 536.522949 C 2017.185791 530.5271 2019.460938 524.7229 2021.356689 518.814575 C 2023.073242 513.460449 2024.73999 508.09375 2026.373291 502.71875 C 2030.61499 488.756226 2035.23999 474.889526 2038.881592 460.772949 C 2040.727539 453.614624 2043.73584 447.022949 2046.23584 440.177124 C 2048.631592 433.602051 2051.398438 427.131226 2053.327393 420.418701 C 2054.823242 415.2229 2056.481689 410.0271 2056.598389 404.4104 C 2056.67334 400.877075 2058.269043 397.352051 2059.348389 393.872925 C 2062.044189 385.15625 2064.814941 376.460449 2067.590088 367.768799 C 2069.169189 362.8396 2070.86084 357.943726 2072.42334 353.010376 C 2074.710938 345.764526 2076.915039 338.493774 2079.17749 331.243774 C 2079.540039 330.081299 2080.023438 328.960449 2080.439941 327.814575 C 2084.094238 317.818726 2087.689941 307.802124 2091.415039 297.835449 C 2095.248291 287.564575 2099.244141 277.356201 2103.094238 267.09375 C 2104.694092 262.827026 2106.019287 258.456299 2107.61499 254.185425 C 2108.623291 251.489624 2109.573242 248.681274 2111.127441 246.310425 C 2113.560791 242.5979 2115.877441 239.002075 2117.206787 234.635376 C 2118.294189 231.068726 2120.944092 228.010376 2122.498291 224.543701 C 2126.135742 216.456299 2131.11499 209.127075 2135.273438 201.364624 C 2138.452393 195.431274 2143.781738 191.9104 2147.823242 187.03125 C 2149.631592 184.852051 2151.894287 184.614624 2154.410889 185.927124 C 2163.939941 190.897949 2172.631592 196.768799 2178.377441 206.2854 C 2180.319092 209.502075 2182.919189 212.427124 2185.648438 215.0354 C 2190.056641 219.252075 2192.956787 224.456299 2195.590088 229.739624 C 2198.340088 235.264526 2202.481689 239.731201 2205.719238 244.852051 C 2206.55249 246.172974 2207.060791 247.702026 2207.744141 249.185425"/>
        <path id="path3" fill="#1a1919" stroke="none" d="M 518.872498 176.329224 C 518.922485 170.845825 516.976685 167.916626 512.939148 166.833374 C 510.164185 166.087524 507.239197 165.93335 504.393311 165.429199 C 498.568359 164.395874 492.793335 162.81665 486.922485 162.345825 C 475.376648 161.412476 463.784973 161 452.205811 160.541626 C 445.805847 160.287476 439.38916 160.258301 432.980835 160.362549 C 429.818359 160.412476 426.626648 160.637451 423.830811 162.6875 C 422.689148 163.520874 421.022522 163.858276 419.555847 163.99585 C 411.20166 164.779175 402.835022 165.387451 394.480835 166.145874 C 389.743347 166.579224 384.968323 166.483276 380.343323 168.099976 C 377.230835 169.19165 376.426636 170.44165 378.276672 173.199951 C 379.20166 174.583374 380.651672 175.695801 381.268311 177.179199 C 382.101685 179.1875 383.476685 180.3125 385.243347 181.358276 C 388.605835 183.354126 392.439148 184.62085 395.168335 187.654175 C 395.655823 188.19165 396.439148 188.50415 397.13916 188.800049 C 400.347473 190.162476 402.597473 192.19165 404.005859 195.637451 C 405.276672 198.741699 407.847473 201.283325 409.522522 204.258301 C 410.618347 206.19165 410.880859 208.599976 411.972473 210.537476 C 413.843323 213.858276 413.301697 216.983276 411.851685 220.150024 C 411.218323 221.533325 410.230835 222.775024 409.751648 224.195801 C 409.189148 225.858276 408.426697 227.783325 408.789185 229.358276 C 409.405823 232.050049 408.718323 234.033325 407.26001 236.170776 C 405.126648 239.304199 403.064148 242.516724 401.305847 245.875 C 398.63501 250.983276 396.297485 256.262451 393.70166 261.416626 C 393.097473 262.612549 392.184998 263.762451 391.151672 264.62085 C 388.601685 266.737549 386.972473 269.416626 385.693359 272.408325 C 384.972473 274.083374 384.230835 275.783325 383.230835 277.300049 C 379.714172 282.650024 376.380798 288.06665 374.359985 294.216675 C 373.905823 295.599976 372.95166 296.94165 371.909973 297.99585 C 368.88916 301.054199 367.059998 304.87915 366.484985 308.887451 C 365.739197 314.083374 363.26001 318.333374 360.893311 322.741699 C 360.405823 323.658325 359.930847 324.599976 359.609985 325.579224 C 357.851685 330.908325 356.980835 336.75 354.180847 341.445801 C 351.51416 345.916626 352.180847 351.287476 348.997498 355.404175 C 348.105835 356.554199 349.38916 357.849976 350.872498 357.258301 C 352.405823 356.645874 354.272522 355.979126 355.13501 354.741699 C 359.20166 348.920776 365.980835 346.56665 370.972534 341.891724 C 376.618347 336.599976 383.122498 332.237549 389.07666 327.25415 C 396.07666 321.395874 402.839172 315.25 409.784973 309.324951 C 416.976685 303.19165 424.439148 297.358276 431.464172 291.037476 C 437.684998 285.445801 443.405823 279.304199 449.476685 273.541626 C 451.335022 271.770874 453.835022 270.670776 455.659973 268.875 C 461.097473 263.533325 466.422485 258.070801 471.643311 252.512451 C 475.909973 247.974976 479.784973 243.0625 484.172485 238.650024 C 487.305847 235.49585 490.555847 232.533325 492.493347 228.429199 C 492.814148 227.75415 493.255859 227.0625 493.814148 226.583374 C 500.080811 221.216675 503.872498 214.016724 508.176697 207.212524 C 511.276672 202.3125 514.339172 197.420776 514.376648 191.233276 C 514.38916 189.1875 515.501648 187.145874 516.130859 185.108276 C 517.164185 181.775024 518.210022 178.445801 518.872498 176.329224 M 1343.334961 416.741699 C 1351.747437 414.295776 1358.76416 411.929199 1365.343384 408.320801 C 1369.214111 406.195801 1373.272461 404.412476 1377.239136 402.454224 C 1392.13916 395.095825 1407.064209 387.783325 1421.930786 380.354126 C 1434.868408 373.895874 1446.20166 364.62085 1459.526733 358.81665 C 1461.180908 358.095825 1462.63916 356.912476 1464.19751 355.962524 C 1466.789185 354.383301 1469.351685 352.75 1471.997559 351.279175 C 1475.859985 349.12915 1479.901733 347.283325 1483.668335 344.979126 C 1489.476685 341.420898 1495.035034 337.449951 1500.851685 333.895874 C 1507.859985 329.616699 1515.172485 325.824951 1522.07251 321.383301 C 1528.980835 316.94165 1535.539185 311.958374 1542.255859 307.216675 C 1545.455811 304.962524 1548.668335 302.716675 1551.880859 300.479126 C 1556.368286 297.349976 1560.914185 294.304199 1565.334961 291.091675 C 1570.505859 287.329224 1575.655884 283.525024 1580.668335 279.55835 C 1587.834961 273.875 1595.32666 268.491699 1601.859985 262.137451 C 1611.572388 252.69165 1620.693359 242.62085 1629.801636 232.574951 C 1633.155884 228.87915 1635.876587 224.579224 1638.664185 220.404175 C 1640.689087 217.37085 1642.351685 214.095825 1644.180908 210.929199 C 1649.030762 202.529175 1652.814209 193.800049 1653.043213 183.858276 C 1653.105957 181.06665 1652.20166 179.150024 1649.651611 178.020874 C 1641.855835 174.56665 1634.230835 170.641724 1626.230835 167.75415 C 1615.226685 163.779175 1603.88916 160.716675 1592.330811 158.729126 C 1583.32666 157.18335 1574.301636 155.354126 1565.218384 154.770874 C 1547.726685 153.637451 1530.189209 153.175049 1512.668335 152.69165 C 1506.122559 152.512451 1499.526611 152.737549 1493.005859 153.329224 C 1484.376587 154.108276 1475.793335 155.395874 1467.20166 156.533325 C 1462.068359 157.212524 1456.897583 157.758301 1451.843262 158.829224 C 1445.76416 160.112549 1439.805786 161.970825 1433.76001 163.43335 C 1428.45166 164.716675 1423.005859 165.479126 1417.785034 167.033325 C 1410.205811 169.291626 1402.797485 172.116699 1395.268311 174.554199 C 1393.13501 175.241699 1392.380859 176.533325 1392.351685 178.587524 C 1392.293335 182.891724 1394.468384 186.041626 1397.314209 189.008301 C 1402.19751 194.099976 1409.130859 197.329224 1411.626709 204.616699 C 1415.864136 208.400024 1418.055786 213.329224 1419.722534 218.637451 C 1421.522461 224.349976 1423.51416 229.962524 1420.614136 235.920776 C 1420.168335 236.833374 1420.084961 238.008301 1420.118286 239.054199 C 1420.351685 246.224976 1416.13916 251.616699 1412.026611 256.516724 C 1409.530762 259.487549 1406.218262 261.550049 1405.559937 265.829224 C 1405.401611 266.866699 1404.109985 267.708374 1403.401733 268.68335 C 1400.455811 272.716675 1397.293335 276.62085 1394.689209 280.862549 C 1392.880859 283.80835 1391.834961 287.224976 1390.484985 290.445801 C 1388.722534 294.641724 1387.551636 299.199951 1385.143311 302.979126 C 1379.797485 311.362549 1377.939087 321.054199 1374.180786 330.012451 C 1371.839233 335.591675 1370.859985 341.837524 1367.960083 347.05835 C 1364.301636 353.645874 1362.38501 360.824951 1359.830811 367.712524 C 1356.943359 375.5 1353.709961 383.224976 1351.747437 391.416626 C 1350.164185 398.033325 1347.193359 404.3125 1344.901611 410.766724 C 1344.32666 412.387451 1344.018311 414.104126 1343.334961 416.741699 M 954.476685 308.045776 C 953.393311 309.599976 952.876709 310.154175 952.568359 310.80835 C 944.643311 327.645874 936.730835 344.491699 928.830811 361.341675 C 923.455811 372.80835 918.005859 384.24585 912.755859 395.770874 C 908.276611 405.62085 904.064209 415.595825 899.676636 425.487549 C 898.272461 428.658325 896.614136 431.716675 895.20166 434.887451 C 890.172485 446.150024 885.035034 457.375 880.239136 468.737549 C 874.218262 483.00415 868.489136 497.387451 862.647461 511.724976 C 861.097534 515.541626 859.484985 519.337524 858.105835 523.216675 C 854.747559 532.679199 851.005859 542.045898 848.397461 551.716675 C 846.643311 558.216675 844.88501 564.891602 846.001709 571.974976 C 846.897461 577.658325 846.897461 583.520874 846.897461 589.300049 C 846.893311 595.99585 847.101685 602.799927 846.018311 609.358398 C 844.968384 615.720825 843.359985 622.19165 839.593384 627.720825 C 836.339111 632.49585 831.547485 634.574951 825.972534 635.00415 C 818.334961 635.595825 811.268311 634.033325 804.551636 630.0625 C 801.114136 628.029175 796.955811 627.224976 793.122559 625.858398 C 792.285034 625.55835 791.32251 625.412476 790.63916 624.900024 C 787.839233 622.800049 785.126709 620.583374 782.380859 618.408325 C 782.143311 618.220825 781.859985 618.050049 781.69751 617.800049 C 777.789185 611.712524 771.801636 607.583374 767.084961 602.258301 C 766.172485 601.233276 765.480835 599.875 764.364136 599.19165 C 760.664185 596.925049 759.676636 593.62085 759.63916 589.516724 C 759.535034 578.49585 759.843384 567.525024 762.743286 556.820801 C 764.689209 549.633301 767.001709 542.545776 769.01001 535.37085 C 770.772461 529.070801 772.13916 522.654175 774.039185 516.395874 C 776.018311 509.87085 778.393311 503.462524 780.660034 497.020874 C 782.418335 492.020874 784.251709 487.045776 786.080811 482.070801 C 787.184937 479.070801 788.351685 476.099976 789.484985 473.112427 C 790.934937 469.287476 792.680786 465.650024 793.44751 461.491699 C 794.118286 457.858398 796.522461 454.56665 798.026733 451.06665 C 801.693359 442.545776 805.255859 433.979126 808.914185 425.454224 C 810.355835 422.091675 811.955811 418.791626 813.455811 415.449951 C 818.439209 404.320801 823.464111 393.208374 828.359985 382.037476 C 830.368286 377.462524 831.984985 372.712524 833.955811 368.12085 C 835.568359 364.375 837.526611 360.775024 839.151611 357.033325 C 839.555786 356.099976 839.609985 354.06665 839.230835 353.900024 C 837.643311 353.208374 836.243286 354.008301 835.580811 355.62085 C 834.714233 357.724976 834.285034 360.05835 833.147461 361.987549 C 831.780884 364.3125 829.868286 366.31665 828.189209 368.458374 C 824.993286 372.529175 821.660034 376.5 818.647461 380.704224 C 816.343384 383.920776 813.964111 387.229126 812.484985 390.849976 C 810.185059 396.470825 806.422485 400.895874 802.676636 405.474976 C 800.972534 407.55835 800.309937 410.462524 798.726685 412.675049 C 796.160034 416.262451 793.214233 419.579224 790.439209 423.020874 C 787.093384 427.170776 784.01416 431.37085 782.380859 436.662476 C 781.189209 440.529175 779.359985 444.479126 776.830811 447.595825 C 769.843384 456.199951 765.32666 466.283325 759.347534 475.479126 C 757.814209 477.833374 756.372559 480.237549 755.847534 483.291626 C 755.443359 485.608276 753.101685 487.541626 751.82251 489.762451 C 749.01001 494.633301 746.351685 499.591675 743.57666 504.487549 C 742.605835 506.199951 741.505859 507.841675 740.414185 509.483276 C 739.234985 511.262451 737.751709 512.887451 736.82251 514.783325 C 733.480835 521.616699 730.030884 528.358276 725.922485 534.787476 C 720.097534 543.900024 714.45166 553.104126 706.851685 560.900024 C 703.239136 564.608276 699.564209 568.25 696.035034 572.037476 C 694.030884 574.18335 691.301636 573.770874 688.88501 574.466675 C 687.160034 574.966675 685.410034 575.449951 683.63501 575.708374 C 681.70166 575.99585 679.589111 576.529175 677.801636 576.041626 C 674.168335 575.05835 670.69751 573.474976 667.176636 572.108276 C 663.922485 570.841675 660.755859 569.3125 657.422485 568.341675 C 655.780884 567.862549 654.63916 567.287476 654.026611 565.741699 C 653.155884 563.56665 651.368286 562.541626 649.310059 561.720825 C 646.064209 560.429199 643.176636 558.887573 640.82251 555.904175 C 638.426636 552.87085 634.859985 550.762451 631.810059 548.24585 C 628.63501 545.62915 625.122559 543.324951 622.355835 540.333374 C 617.305847 534.875 612.543335 529.095825 611.172485 521.400024 C 611.093323 520.954224 611.047485 520.487549 611.064148 520.037476 C 611.493347 508.595825 609.472473 497.287476 609.172485 485.891602 C 608.897522 475.387451 608.964172 464.87085 608.684998 454.362427 C 608.526672 448.31665 607.876648 442.283325 607.618347 436.241699 C 607.330811 429.320801 605.214172 422.483276 606.968323 415.44165 C 607.364197 413.858276 606.484985 411.891724 605.95166 410.179199 C 605.789185 409.650024 604.82251 409.037476 604.251648 409.0625 C 603.651672 409.087524 602.94751 409.733276 602.534973 410.287476 C 602.205811 410.729126 602.247498 411.445801 602.118347 412.041626 C 599.476685 424.224976 596.784973 436.404175 594.214172 448.604126 C 593.055847 454.116699 592.247498 459.704224 591.068359 465.212524 C 590.214172 469.195801 588.94751 473.091675 587.976685 477.054199 C 587.218323 480.158325 586.243347 483.283325 586.047485 486.4375 C 585.551697 494.583374 583.168335 502.279175 581.26001 510.12085 C 579.539185 517.195801 578.755859 524.491699 577.493347 531.679199 C 576.968323 534.662476 576.222473 537.604126 575.672485 540.579102 C 574.01416 549.56665 572.476685 558.550049 569.855835 567.366699 C 567.872498 574.033325 567.184998 581.083374 565.868347 587.954224 C 564.376648 595.724976 562.82666 603.483276 561.314148 611.24585 C 561.172485 611.991699 561.109985 612.758301 561.051697 613.516724 C 560.234985 624.300049 552.63916 631.44165 541.88501 631.516724 C 540.355835 631.525024 538.82666 631.425049 537.301636 631.5 C 532.772522 631.712524 528.659973 630.983276 524.88916 628.025024 C 522.797485 626.387451 519.818359 625.9375 517.460022 624.574951 C 510.614197 620.62085 503.897522 616.4375 497.085022 612.420898 C 495.022522 611.204224 492.809998 610.241699 490.676636 609.150024 C 489.730835 608.662476 488.614197 608.320801 487.901672 607.591675 C 484.909973 604.533325 481.94751 601.512451 478.030823 599.554199 C 476.405823 598.737549 475.893311 597.079224 476.234985 595.212524 C 477.239197 589.695801 477.964172 584.12085 479.243347 578.670776 C 480.493347 573.341675 482.555847 568.200073 483.780823 562.866699 C 485.243347 556.491699 486.151672 549.987549 487.393311 543.554199 C 487.793335 541.470825 488.497498 539.449951 489.034973 537.391602 C 489.605835 535.1875 490.184998 532.983276 490.689148 530.766724 C 492.355835 523.49585 494.01001 516.229126 495.618347 508.945801 C 496.405823 505.37915 496.964172 501.758301 497.839172 498.216675 C 499.251648 492.479126 501.034973 486.833374 502.297485 481.06665 C 503.272522 476.616699 503.618347 472.029175 504.372498 467.520874 C 505.026672 463.633301 505.905823 459.787476 506.601685 455.904175 C 507.539185 450.679199 508.401672 445.44165 509.289185 440.208374 C 509.38916 439.608276 509.347473 438.966675 509.543335 438.404175 C 512.243347 430.80835 513.943359 422.945801 515.193359 415.020874 C 516.568359 406.31665 519.839172 398.020874 520.330811 389.12085 C 520.493347 386.166626 522.130859 383.324951 522.82251 380.37085 C 524.618347 372.699951 526.376648 365.016724 527.909973 357.291626 C 528.585022 353.887451 528.57666 350.354126 529.07251 346.908325 C 529.284973 345.4375 530.13501 344.06665 530.439148 342.595825 C 530.855835 340.570801 531.064148 338.49585 531.305847 336.4375 C 531.605835 333.900024 531.855835 331.362549 532.114197 328.824951 C 532.405823 325.962524 532.818359 323.104126 532.876648 320.241699 C 532.893311 319.474976 531.939148 318.375 531.159973 318.029175 C 530.684998 317.81665 529.222473 318.591675 529.022522 319.195801 C 527.268311 324.420776 521.939148 326.170898 518.69751 329.974976 C 515.480835 333.75 511.339172 336.729126 507.647522 340.108276 C 503.480835 343.916626 499.434998 347.858276 495.214172 351.599976 C 487.585022 358.366699 479.909973 365.079224 472.164185 371.712524 C 465.210022 377.666626 458.184998 383.537476 451.089172 389.320801 C 448.614197 391.337524 445.789185 392.925049 443.20166 394.8125 C 440.864136 396.520874 438.609985 398.345825 436.355835 400.170776 C 433.284973 402.650024 430.26416 405.19165 427.20166 407.68335 C 425.085022 409.408325 422.676697 410.854126 420.859985 412.841675 C 418.430847 415.50415 415.126648 416.679199 412.364136 418.69165 C 405.351685 423.804199 398.401672 429.020874 391.755859 434.591675 C 385.351685 439.962524 378.280823 444.395874 371.76001 449.554199 C 364.734985 455.112549 358.151672 461.224976 351.38916 467.108398 C 350.585022 467.804199 349.960022 468.787476 349.051697 469.266724 C 342.247498 472.845825 336.705811 478.083374 330.82251 482.891602 C 326.143311 486.712524 321.184998 490.19165 316.480835 493.987549 C 315.376648 494.87915 314.57251 496.337524 314.034973 497.695801 C 311.097473 505.125 309.905823 512.94165 308.830811 520.820801 C 307.534973 530.324951 305.626648 539.741699 304.193359 549.229126 C 303.151672 556.133301 297.51001 594.195801 296.626648 601.125 C 296.397522 602.93335 296.01001 604.724976 295.730835 606.529175 C 295.13501 610.43335 294.568359 614.345825 293.980835 618.258301 C 293.147522 623.820801 292.226685 629.375 291.489197 634.954224 C 290.934998 639.18335 290.609985 643.354126 291.88501 647.650024 C 292.464172 649.599976 291.918335 652.341675 290.918335 654.208374 C 288.484985 658.762451 285.609985 663.099976 282.676636 667.362549 C 280.747498 670.166626 277.69751 671.31665 274.368347 671.570801 C 263.443298 672.395874 253.793335 669.324951 246.114197 661.408325 C 240.580811 655.704224 233.501648 653.112549 226.45166 650.1875 C 219.730835 647.400024 212.964172 644.550049 207.422485 639.608276 C 206.585022 638.862549 205.535034 637.675049 205.57666 636.733398 C 205.88916 629.5 204.755859 622.283325 205.480835 615.041626 C 205.809998 611.766602 203.939148 608.56665 205.301636 605.116699 C 207.13501 600.474976 213.51001 564.56665 215.097534 559.829224 C 215.82251 557.670898 216.801636 555.550049 217.176697 553.333374 C 218.63916 544.637451 219.980835 535.916626 221.218323 527.1875 C 221.714172 523.6875 220.689148 520.6875 219.030823 517.329102 C 216.305847 511.8125 212.543335 508.741699 206.914185 506.712524 C 201.38501 504.716675 195.018311 491.991699 195.976685 486.145874 C 196.151672 485.0625 196.918335 483.858276 197.776672 483.141724 C 200.01416 481.266602 201.38916 479.083374 201.493347 476.112549 C 201.647461 471.633301 204.864197 469.079224 207.922485 466.637573 C 212.32666 463.125 217.789185 460.612427 221.343323 456.4375 C 227.330811 449.404175 234.605835 443.224976 236.251648 432.900024 C 237.189209 427.00415 238.051636 420.849976 239.830811 415.158325 C 243.160034 404.50415 244.184998 393.429199 246.964172 382.708374 C 248.710022 375.954224 251.301636 369.283325 251.955872 362.429199 C 252.660034 355.020874 255.814148 348.341675 256.63916 341.037476 C 257.489197 333.545776 259.01416 326.133301 260.168335 318.675049 C 260.422485 317.025024 260.309998 315.324951 260.422485 313.654175 C 260.630859 310.462524 261.151672 307.512451 263.005859 304.616699 C 264.368347 302.483276 265.01416 299.383301 264.772522 296.829224 C 263.980835 288.43335 266.418335 280.837524 269.880859 273.508301 C 271.522522 270.037476 271.69751 266.787476 270.289185 263.429199 C 269.359985 261.212524 269.085022 259.12085 269.689148 256.779175 C 270.789185 252.529175 271.943359 248.266724 272.589172 243.9375 C 272.905823 241.787476 272.622498 239.275024 271.76416 237.291626 C 270.268311 233.829224 270.568359 230.474976 271.07666 226.979126 C 271.689148 222.783325 272.426697 218.583374 272.680847 214.358276 C 272.855835 211.43335 272.726685 208.554199 274.551636 206.045776 C 274.730835 205.800049 274.934998 205.516724 274.964172 205.233276 C 275.114197 203.766724 275.218323 202.291626 275.335022 200.820801 C 273.905823 200.962524 272.276672 200.712524 271.080811 201.3125 C 265.501648 204.133301 259.88501 206.94165 254.564148 210.212524 C 244.305847 216.525024 234.210022 223.095825 224.114197 229.666626 C 221.568359 231.324951 219.355835 233.491699 216.859985 235.237549 C 209.484985 240.395874 202.276672 245.758301 195.972473 252.216675 C 189.789124 258.550049 183.984985 265.279175 177.526672 271.30835 C 168.672485 279.570801 161.26416 289.054199 153.301697 298.083374 C 150.930847 300.775024 149.297485 303.729126 147.505859 306.712524 C 144.851685 311.141724 141.651672 315.25 139.101685 319.733276 C 133.680847 329.258301 128.405823 338.866699 123.364197 348.595825 C 122.07251 351.079102 121.664185 354.099976 121.26001 356.93335 C 120.984985 358.87085 120.376648 360.266724 118.943298 361.654175 C 117.730835 362.824951 116.605835 364.56665 116.368347 366.1875 C 115.597473 371.458374 115.251648 376.787476 114.743347 382.091675 C 114.672485 382.845825 114.880859 383.80835 114.493347 384.320801 C 110.559998 389.570801 109.276672 395.979126 106.701691 401.81665 C 106.155823 403.05835 106.101654 404.520874 105.505829 405.729126 C 104.659973 407.454224 103.785004 409.300049 102.455811 410.625 C 99.655823 413.412476 96.351685 415.699951 93.622498 418.545776 C 88.547485 423.833374 82.684998 423.970825 76.355835 421.716675 C 73.943359 420.858276 71.63916 419.6875 69.280823 418.670776 C 68.864166 418.491699 68.368317 418.179199 67.993347 418.270874 C 62.289154 419.654175 58.035004 414.841675 52.655853 414.662476 C 51.534973 414.62915 49.905823 413.416626 49.468353 412.349976 C 47.555847 407.666626 43.084991 407.283325 39.247498 405.858398 C 37.559998 405.233276 35.705841 405.054199 33.972504 404.525024 C 33.297485 404.320801 32.359985 403.8125 32.209991 403.258301 C 30.955841 398.662476 26.851685 396.333374 23.984985 393.12085 C 18.968353 387.50415 15.705811 381.587524 16.655853 373.795776 C 16.905823 371.74585 16.339172 369.604126 16.272491 367.5 C 15.964172 357.87085 21.093323 350.487549 26.522491 343.30835 C 27.597504 341.891724 28.189178 340.699951 28.347504 338.895874 C 28.718323 334.550049 29.614166 330.591675 32.451691 326.68335 C 35.755829 322.12915 38.593353 317.012451 39.910004 311.12915 C 41.280823 304.99585 45.551666 300.070801 48.814148 294.75 C 51.522491 290.333374 53.939178 285.741699 56.660004 281.333374 C 58.239166 278.770874 60.193329 276.44165 61.922516 273.970825 C 64.189178 270.724976 66.380829 267.420776 68.647491 264.175049 C 72.051666 259.30835 75.805847 254.654175 78.851654 249.579224 C 83.776672 241.375 90.555847 234.775024 96.989166 227.912476 C 104.38916 220.012451 112.085022 212.354126 120.109985 205.095825 C 126.176636 199.608276 132.976685 194.93335 139.418335 189.858276 C 143.480835 186.658325 147.526672 183.43335 151.51416 180.137451 C 156.093323 176.354126 160.601685 172.479126 165.143372 168.645874 C 165.376709 168.449951 165.614197 168.18335 165.88916 168.125 C 171.339172 166.970825 175.01416 162.791626 179.543335 160.070801 C 183.455811 157.720825 187.085022 154.904175 190.984985 152.533325 C 197.70166 148.449951 204.530823 144.545776 211.314148 140.570801 C 216.051636 137.800049 220.643372 134.716675 225.57251 132.341675 C 231.872498 129.30835 238.45166 126.849976 244.914185 124.141724 C 246.45166 123.49585 247.964172 122.770874 249.530823 122.199951 C 254.372498 120.429199 259.268311 118.804199 264.080811 116.958374 C 274.876648 112.81665 285.368347 107.833374 296.743347 105.295776 C 306.214172 103.18335 315.626648 100.795776 325.151672 98.954224 C 333.651672 97.3125 342.280823 96.37085 350.818359 94.904175 C 357.409973 93.770874 363.939148 92.283325 370.505798 90.991699 C 372.147522 90.666626 373.814148 90.375 375.480835 90.25 C 383.539185 89.637451 391.593323 88.783325 399.659973 88.591675 C 412.443359 88.291626 425.239136 88.449951 438.030823 88.408325 C 438.94751 88.404175 439.859985 88.333374 440.776672 88.300049 C 450.255859 87.958374 459.614136 88.862549 468.901672 90.787476 C 476.505859 92.366699 484.126648 93.908325 491.793335 95.116699 C 501.88916 96.708374 511.122498 100.650024 520.147522 105.112549 C 526.705811 108.358276 533.080811 111.987549 539.44751 115.604126 C 546.593323 119.662476 551.768311 125.991699 557.489136 131.6875 C 558.63916 132.829224 559.984985 133.779175 561.080811 134.970825 C 563.443359 137.541626 565.768311 140.154175 567.989197 142.854126 C 570.564148 145.987549 571.930847 146.491699 575.359985 144.49585 C 578.747498 142.520874 581.70166 139.62915 585.268311 138.1875 C 588.997498 136.679199 591.122498 132.404175 595.714172 132.5625 C 596.659973 132.595825 598.055847 131.983276 598.530823 131.220825 C 601.518311 126.4375 607.022522 127.75415 611.172485 125.837524 C 615.518311 123.833374 620.13916 124.891724 624.660034 125.62085 C 626.918335 125.987549 629.209961 126.445801 631.472534 126.387451 C 635.355835 126.283325 639.122559 126.233276 642.347534 128.875 C 642.672485 129.141724 643.19751 129.270874 643.63501 129.287476 C 652.426636 129.650024 657.255859 135.333374 661.551636 142.104126 C 663.310059 144.87915 665.789185 147.387451 668.418335 149.375 C 672.601685 152.541626 675.351685 156.554199 677.359985 161.262451 C 677.82251 162.349976 678.443359 163.483276 679.285034 164.291626 C 683.922485 168.741699 686.601685 174.37915 688.94751 180.1875 C 690.101685 183.0625 689.297485 186.679199 692.239136 188.895874 C 692.339111 188.974976 692.422485 189.195801 692.38916 189.31665 C 690.689209 195.345825 695.32251 201.016724 692.785034 207.454224 C 690.859985 212.345825 689.82666 217.837524 690.305786 223.533325 C 690.57251 226.75 688.522461 230.162476 687.51416 233.483276 C 686.368286 237.25415 685.430786 241.099976 684.01416 244.766724 C 682.301636 249.204224 682.339111 253.883301 681.580811 258.445801 C 681.38916 259.616699 681.76416 260.866699 681.739136 262.074951 C 681.705811 263.887451 682.07251 265.945801 681.347534 267.454224 C 679.626709 271.029175 679.505859 274.779175 679.043335 278.55835 C 677.26416 293.025024 677.672485 307.43335 679.405884 321.87915 C 679.851685 325.587524 679.209961 329.429199 679.018311 333.208374 C 678.976685 334.112549 678.530884 335.029175 678.630859 335.895874 C 679.368286 342.06665 680.243286 348.220825 680.976685 354.387451 C 681.372559 357.712524 681.626709 361.054199 681.864136 364.391602 C 682.289185 370.3125 682.601685 376.237549 683.068359 382.150024 C 683.459961 387.162476 684.109985 392.150024 684.45166 397.162476 C 684.810059 402.483276 684.855835 407.824951 685.20166 413.145874 C 685.368286 415.716675 685.714111 418.31665 686.343384 420.80835 C 686.934937 423.162476 688.501709 423.766602 690.405884 422.25 C 692.155884 420.858276 693.647461 419.020874 694.880859 417.133301 C 700.13916 409.116699 705.255859 401.00415 710.422485 392.929199 C 710.668335 392.541626 710.935059 392.158325 711.118286 391.741699 C 714.084961 384.966675 719.355835 379.729126 723.239136 373.5625 C 726.814209 367.891602 730.459961 362.266724 734.068359 356.616699 C 734.397461 356.104126 734.664185 355.541626 735.039185 355.06665 C 739.38501 349.574951 743.830811 344.154175 748.07251 338.574951 C 749.897461 336.175049 751.122559 333.320801 752.926636 330.904175 C 762.422485 318.199951 771.976685 305.541626 781.584961 292.920776 C 790.068359 281.783325 798.535034 270.625 807.209961 259.637451 C 816.185059 248.275024 825.334961 237.050049 834.543335 225.875 C 841.614136 217.295776 848.910034 208.895874 856.07666 200.391724 C 863.147461 192.008301 870.589233 183.900024 877.126709 175.116699 C 884.539185 165.158325 893.314209 156.508301 901.609985 147.383301 C 906.730835 141.75 911.051636 135.387451 916.26001 129.845825 C 928.593384 116.720825 941.109985 103.762451 953.830811 91.016724 C 957.897461 86.94165 962.847534 83.758301 967.347534 80.112549 C 969.230835 78.587524 970.859985 76.724976 972.834961 75.341675 C 977.905884 71.783325 983.035034 73.00415 988.459961 74.929199 C 994.301636 77.00415 998.20166 81.44165 1002.70166 85.154175 C 1011.368286 92.320801 1019.180786 100.474976 1028.401733 107.029175 C 1031.709961 109.37915 1034.334961 112.69165 1037.26001 115.574951 C 1037.472534 115.783325 1037.676636 116.050049 1037.76416 116.329224 C 1040.44751 125.025024 1047.480835 130.354126 1053.455811 136.470825 C 1055.343384 138.400024 1056.901611 140.24585 1056.901611 143.137451 C 1056.901611 144.06665 1057.484985 145.283325 1058.205811 145.87915 C 1061.855835 148.900024 1063.830811 153.025024 1065.926636 157.083374 C 1066.905884 158.979126 1067.57251 161.05835 1068.69751 162.858276 C 1072.622437 169.141724 1072.459961 175.929199 1071.26001 182.800049 C 1069.44751 193.195801 1066.434937 203.25415 1061.935059 212.820801 C 1060.910034 214.99585 1059.439087 216.958374 1058.20166 219.041626 C 1057.751587 219.800049 1057.147461 220.579224 1057.030884 221.408325 C 1056.334961 226.383301 1056.172485 231.466675 1055.043335 236.329224 C 1053.651611 242.324951 1054.243286 248.541626 1052.993286 254.333374 C 1051.905884 259.383301 1051.63916 264.5 1050.605835 269.525024 C 1049.535034 274.720825 1049.643311 280.150024 1048.976685 285.445801 C 1048.334961 290.56665 1047.38501 295.654175 1046.535034 300.75 C 1046.209961 302.695801 1045.709961 304.616699 1045.439209 306.570801 C 1044.059937 316.525024 1042.655884 326.474976 1041.418335 336.445801 C 1040.926636 340.37915 1040.855835 344.358276 1040.547485 348.31665 C 1040.32666 351.199951 1039.976685 354.079224 1039.768311 356.962524 C 1039.193359 364.875 1038.630859 372.783325 1038.143311 380.699951 C 1038.07666 381.833374 1038.459961 382.99585 1038.82251 385.37915 C 1040.343384 383.650024 1041.301636 382.829224 1041.930786 381.804199 C 1046.559937 374.266724 1051.051636 366.645874 1055.722534 359.137451 C 1060.068359 352.154175 1064.547485 345.25 1069.030762 338.354126 C 1074.01001 330.695801 1078.926636 322.991699 1084.114136 315.470825 C 1090.57666 306.095825 1097.205811 296.833374 1103.918335 287.633301 C 1108.047485 281.974976 1112.689209 276.68335 1116.685059 270.93335 C 1121.45166 264.0625 1125.718384 256.849976 1130.305786 249.854126 C 1132.468384 246.554199 1134.855835 243.400024 1137.176636 240.208374 C 1141.026611 234.912476 1144.859985 229.595825 1148.789185 224.358276 C 1153.243286 218.416626 1157.493286 212.283325 1162.372559 206.704224 C 1171.989136 195.708374 1182.051636 185.095825 1191.789185 174.199951 C 1195.851685 169.650024 1199.593384 164.81665 1203.393311 160.041626 C 1206.422485 156.237549 1209.355835 152.354126 1212.268311 148.462524 C 1216.734985 142.491699 1221.126709 136.466675 1225.589111 130.491699 C 1227.685059 127.6875 1229.82251 124.908325 1232.01416 122.179199 C 1237.455811 115.404175 1243.626587 108.991699 1246.409912 100.604126 C 1248.580811 94.05835 1252.418335 88.670776 1256.189087 83.154175 C 1260.430786 76.962524 1266.747559 75.258301 1273.797485 75.55835 C 1274.905884 75.608276 1276.126709 76.37085 1277.030762 77.12085 C 1279.726685 79.354126 1282.26416 81.779175 1284.914185 84.070801 C 1286.864136 85.762451 1288.793335 87.49585 1290.901733 88.970825 C 1294.364136 91.395874 1298.255859 93.045776 1301.443359 96.0625 C 1303.372437 97.887451 1306.672485 98.262451 1309.351685 99.295776 C 1310.32666 99.670776 1311.643311 99.779175 1312.209961 100.483276 C 1315.934937 105.137451 1321.539185 105.337524 1326.609985 106.449951 C 1331.214233 107.458374 1336.018311 107.612549 1340.626587 105.849976 C 1343.76001 104.654175 1346.868286 103.366699 1350.064087 102.354126 C 1357.459961 100.008301 1364.868286 97.69165 1372.334961 95.583374 C 1380.405884 93.304199 1388.547485 91.283325 1396.655884 89.133301 C 1407.414185 86.279175 1418.247559 83.912476 1429.401611 83.175049 C 1432.101685 82.99585 1434.722534 81.758301 1437.430786 81.43335 C 1447.868286 80.1875 1458.330811 79.116699 1468.780762 77.979126 C 1471.189209 77.716675 1473.593262 77.4375 1476.355835 77.125 C 1475.476685 75.94165 1474.897461 75.162476 1474.318359 74.383301 C 1475.122559 74.0625 1475.918335 73.491699 1476.734985 73.462524 C 1480.689209 73.324951 1484.651733 73.354126 1488.609985 73.275024 C 1493.32666 73.179199 1498.039185 73.025024 1502.755859 72.916626 C 1503.489136 72.900024 1504.222412 72.979126 1505.63916 73.050049 C 1504.70166 74.212524 1504.126709 74.920776 1503.430908 75.787476 C 1504.251709 75.787476 1505.380859 76.141724 1505.872559 75.729126 C 1510.959961 71.508301 1516.872559 73.3125 1522.38916 73.675049 C 1533.334961 74.395874 1544.239136 75.741699 1555.160034 76.8125 C 1560.44751 77.333374 1565.76416 77.658325 1571.030884 78.37085 C 1574.926636 78.895874 1578.76001 79.900024 1582.618286 80.69165 C 1583.814209 80.9375 1584.993286 81.333374 1586.19751 81.412476 C 1596.355835 82.070801 1605.689209 85.8125 1615.155884 89.06665 C 1618.751709 90.30835 1622.410034 91.37915 1625.972534 92.712524 C 1635.564209 96.30835 1644.685059 100.87085 1652.905762 107.016724 C 1659.735107 112.116699 1666.622559 117.199951 1672.968262 122.866699 C 1676.755859 126.25 1679.656006 130.662476 1682.755859 134.762451 C 1684.95166 137.662476 1686.418213 141.195801 1688.909912 143.775024 C 1694.101563 149.154175 1696.064209 156.083374 1699.01001 162.574951 C 1699.943359 164.62915 1700.893311 166.974976 1702.530762 168.362549 C 1706.997559 172.133301 1708.810059 177.19165 1710.530762 182.43335 C 1712.047607 187.050049 1714.168457 191.512451 1715.255859 196.220825 C 1716.347656 200.925049 1716.439209 205.862549 1717.080811 210.679199 C 1717.310059 212.400024 1717.318359 214.787476 1718.393311 215.612549 C 1720.32251 217.083374 1722.068359 214.949951 1723.472412 213.720825 C 1727.82666 209.916626 1731.943359 205.841675 1736.305908 202.045776 C 1742.726807 196.449951 1749.276611 191 1755.776611 185.491699 C 1757.868408 183.720825 1760.080811 182.079224 1762.055908 180.19165 C 1766.243164 176.195801 1770.151611 171.983276 1775.422363 169.19165 C 1779.555908 167 1783.689209 164.408325 1787.001709 161.154175 C 1791.222656 157.016724 1795.443359 153.05835 1800.38501 149.75415 C 1802.547607 148.3125 1803.664307 145.400024 1805.560059 143.449951 C 1812.69751 136.108276 1820.843262 129.966675 1829.055908 123.87915 C 1835.051758 119.4375 1840.280762 113.87915 1846.522461 109.866699 C 1856.301758 103.574951 1864.564209 95.279175 1874.410156 89.216675 C 1887.630859 81.074951 1900.526611 72.275024 1915.109863 66.554199 C 1921.068359 64.220825 1927.018311 61.849976 1932.993408 59.550049 C 1940.57251 56.62915 1948.435059 54.99585 1956.518311 54.170776 C 1958.872559 53.93335 1961.26001 53.079224 1963.418457 52.054199 C 1967.568359 50.087524 1971.793213 48.633301 1976.301514 47.591675 C 1981.155762 46.466675 1985.76416 44.283325 1990.489014 42.579224 C 1995.418457 40.795776 1999.705811 41.970825 2003.668457 45.25415 C 2009.959961 50.466675 2014.935059 56.841675 2019.534912 63.470825 C 2021.772461 66.69165 2023.164063 70.508301 2024.868408 74.087524 C 2028.251709 81.179199 2032.143311 88 2033.810059 95.887451 C 2034.601563 99.633301 2037.047607 103.079224 2038.989258 106.520874 C 2041.485107 110.9375 2042.905762 115.37915 2041.334961 120.5 C 2040.539307 123.095825 2039.435059 125.241699 2037.13501 126.795776 C 2032.847412 129.68335 2029.868408 133.862549 2027.443359 138.224976 C 2021.968262 148.079224 2017.01001 158.220825 2011.689209 168.166626 C 2009.318359 172.591675 2006.589111 176.829224 2004.01416 181.141724 C 2003.468262 182.05835 2002.747559 182.887451 2002.314209 183.849976 C 1997.101563 195.37085 1990.718262 206.283325 1984.855713 217.462524 C 1983.730957 219.604126 1982.301514 221.583374 1981.101563 223.6875 C 1975.810059 232.954224 1970.547607 242.241699 1965.276611 251.520874 C 1964.44751 252.974976 1963.755859 254.533325 1962.755859 255.858276 C 1954.926758 266.24585 1949.314209 277.949951 1943.305908 289.362549 C 1941.151611 293.454224 1939.330811 297.845825 1937.235107 302.054199 C 1935.82666 304.875 1933.959961 307.116699 1931.230957 308.766724 C 1929.430908 309.854126 1927.851563 311.30835 1926.19751 312.633301 C 1920.555908 317.145874 1913.551514 317.599976 1906.905762 319.108276 C 1903.868164 319.795776 1901.51001 318.158325 1899.497559 316.287476 C 1892.214111 309.529175 1886.051514 301.8125 1879.851807 294.041626 C 1875.714111 288.849976 1873.651611 282.733276 1869.830811 277.525024 C 1866.685059 273.241699 1863.901611 268.666626 1861.209961 264.079224 C 1858.859863 260.079224 1857.13916 255.820801 1858.897461 251.041626 C 1859.418213 249.62085 1860.060059 248.24585 1860.659912 246.854126 C 1861.38501 245.179199 1862.530762 243.570801 1862.789307 241.829224 C 1863.51416 236.987549 1866.51001 233.604126 1869.459961 230.074951 C 1871.393311 227.758301 1873.022461 225.179199 1874.801758 222.733276 C 1876.222412 220.779175 1877.655762 218.833374 1879.105713 216.904175 C 1879.468262 216.416626 1880.005859 216.054199 1880.32666 215.545776 C 1886.401611 205.883301 1892.455811 196.204224 1898.518311 186.533325 C 1900.209961 183.824951 1901.930908 181.133301 1903.597656 178.412476 C 1904.214111 177.404175 1904.714111 176.329224 1904.780762 174.525024 C 1903.355957 175.104126 1901.76416 175.445801 1900.530762 176.300049 C 1891.397461 182.625 1882.235107 188.916626 1873.284912 195.49585 C 1868.130859 199.287476 1863.38501 203.62915 1858.405762 207.658325 C 1849.168213 215.12915 1839.939209 222.608276 1830.605957 229.954224 C 1828.468262 231.637451 1825.860107 232.708374 1823.584961 234.233276 C 1820.57251 236.25415 1817.439209 238.1875 1814.76416 240.604126 C 1804.593262 249.800049 1794.672363 259.270874 1784.493408 268.454224 C 1775.32666 276.724976 1765.801758 284.599976 1756.69751 292.9375 C 1751.089111 298.074951 1746.01416 303.791626 1740.618408 309.170776 C 1739.118408 310.666626 1737.209961 311.75415 1735.726807 313.258301 C 1733.168213 315.858276 1730.768311 318.616699 1728.351563 321.354126 C 1719.597656 331.287476 1710.76416 341.162476 1702.155762 351.224976 C 1697.601563 356.545776 1693.297607 362.099976 1689.168457 367.758301 C 1684.94751 373.533325 1681.018311 379.529175 1677.080811 385.50415 C 1675.555908 387.820801 1676.030762 389.458374 1678.534912 390.75415 C 1679.847412 391.43335 1681.405762 391.866699 1682.88501 391.970825 C 1694.001709 392.758301 1705.089111 393.050049 1716.239258 391.712524 C 1727.584961 390.349976 1739.031006 389.81665 1750.430908 388.862549 C 1764.718262 387.670776 1778.989258 386.266602 1793.289063 385.241699 C 1809.722412 384.0625 1826.172607 383.19165 1842.618408 382.199951 C 1852.189209 381.62085 1861.755859 380.849976 1871.339111 380.55835 C 1882.918457 380.208374 1894.518311 379.645874 1906.047607 381.679199 C 1910.672607 382.49585 1915.376709 382.550049 1920.093262 382.708374 C 1927.01001 382.9375 1933.935059 383.479126 1940.830811 385.5 C 1947.622559 387.491699 1954.168457 389.633301 1960.297363 393.141724 C 1967.630859 397.345825 1973.839111 403.008301 1979.339111 409.233276 C 1982.01001 412.262451 1982.905762 416.862549 1984.589111 420.758301 C 1984.997559 421.708374 1985.055908 423.074951 1985.755859 423.579224 C 1988.897461 425.841675 1988.735107 429.141724 1989.489258 432.44165 C 1991.143311 439.675049 1992.968262 447.041626 1996.07251 453.724976 C 1998.651611 459.266602 1998.664063 464.633301 1998.235107 470.212524 C 1997.772461 476.195801 1996.57251 481.987549 1991.614258 486.270874 C 1990.426758 487.295898 1989.70166 489.041626 1989.164063 490.591675 C 1987.818359 494.50415 1985.122559 497.279175 1982.20166 500.041626 C 1975.459961 506.412476 1969.064209 513.158325 1962.180908 519.366699 C 1958.597412 522.599976 1954.247559 524.979126 1950.293213 527.80835 C 1944.122559 532.229126 1937.88916 536.570801 1931.864258 541.18335 C 1923.501709 547.587524 1915.114014 553.916626 1905.864014 559.037476 C 1903.089111 560.570801 1900.689209 562.762573 1898.005859 564.479126 C 1890.430908 569.31665 1882.76001 573.99585 1875.205811 578.866699 C 1870.609863 581.833374 1866.235107 585.150024 1861.626709 588.099976 C 1857.918457 590.470825 1853.930908 592.395874 1850.222412 594.75415 C 1845.864258 597.525024 1841.584961 600.4375 1837.422363 603.491699 C 1832.018311 607.454224 1826.810059 611.6875 1821.422607 615.675049 C 1811.522461 623.016724 1801.459961 630.137451 1791.643311 637.583374 C 1783.185059 644 1774.972412 650.741699 1766.647461 657.333374 C 1764.393311 659.12085 1763.176758 661.362549 1762.676758 664.270874 C 1761.397461 671.704224 1754.518311 674.016724 1748.63916 669.237427 C 1746.468262 667.470825 1744.601563 665.62915 1743.57666 662.916626 C 1742.772461 660.791626 1741.118408 659.916626 1738.772461 660.987549 C 1737.82251 661.424927 1736.755859 661.6875 1735.709961 661.81665 C 1733.751709 662.05835 1731.959961 661.837524 1731.70166 659.295898 C 1731.497559 657.25415 1730.114258 656.449951 1728.330811 656.12915 C 1726.209961 655.75 1725.055908 654.345825 1723.755859 652.708374 C 1719.126709 646.862549 1714.464111 641.025024 1706.080811 640.283325 C 1702.943359 640.008301 1702.005859 638.212524 1702.493408 635.083374 C 1702.630859 634.19165 1703.034912 633.341675 1703.280762 632.462524 C 1704.159912 629.291626 1703.597656 628.591675 1700.126709 628.449951 C 1699.705811 628.429199 1699.285156 628.295776 1698.893311 628.220825 C 1698.218262 623.783325 1698.709961 619.645874 1700.943359 615.795776 C 1701.022461 615.666626 1701.110107 615.533325 1701.151611 615.387451 C 1701.768311 613.079224 1701.730713 610.241699 1703.105957 608.554199 C 1708.276611 602.199951 1712.739258 595.133301 1719.930908 590.633301 C 1724.44751 587.804199 1728.976563 584.962524 1733.230957 581.770874 C 1736.872559 579.033325 1740.376709 576.020874 1743.51416 572.720825 C 1750.793457 565.06665 1759.801758 560.095825 1768.88916 555.016724 C 1775.643311 551.241699 1781.95166 546.591675 1788.176758 541.954224 C 1798.668457 534.133301 1808.847412 525.887451 1819.347656 518.074951 C 1823.980957 514.62915 1829.089111 511.829102 1833.959961 508.704102 C 1844.855713 501.712524 1855.926758 494.979126 1866.551758 487.595825 C 1873.51001 482.758301 1879.909912 477.087524 1886.372559 471.570801 C 1891.926514 466.829224 1897.226563 461.783325 1902.614014 456.841675 C 1903.13501 456.362549 1903.455811 455.670776 1903.868164 455.079224 C 1903.164307 454.625 1902.480957 453.81665 1901.755859 453.779175 C 1898.718262 453.604126 1895.664063 453.545776 1892.626709 453.666626 C 1888.82251 453.820801 1885.034912 454.216675 1881.235107 454.470825 C 1875.159912 454.875 1869.068359 455.112549 1863.005859 455.670776 C 1848.880859 456.966675 1834.76001 458.329224 1820.659912 459.841675 C 1814.155762 460.537476 1807.689209 462.44165 1801.218262 462.383301 C 1790.530762 462.295898 1780.080811 463.704224 1769.526611 464.87915 C 1755.147461 466.479126 1740.680908 467.525024 1726.222412 468.099976 C 1715.730957 468.520874 1705.176758 468.333374 1694.755859 466.212524 C 1691.993408 465.650024 1688.984863 466.37915 1686.089111 466.366699 C 1678.735107 466.329102 1672.01416 464.050049 1665.714111 460.383301 C 1664.130859 459.458374 1662.664307 458.24585 1660.976807 457.608398 C 1654.218262 455.05835 1649.364258 449.875 1644.130859 445.320801 C 1640.368286 442.045776 1637.309937 437.966675 1633.95166 434.233276 C 1632.022583 432.091675 1630.030884 429.991699 1628.239136 427.737549 C 1625.968384 424.887451 1623.893311 421.87915 1621.689087 418.970825 C 1620.039185 416.800049 1618.589233 414.383301 1616.589111 412.591675 C 1609.910034 406.612549 1606.326782 399.19165 1605.210083 390.383301 C 1604.57666 385.395874 1603.626709 380.449951 1602.785034 375.491699 C 1602.285034 372.55835 1601.651733 372.141602 1599.372559 373.625 C 1592.484985 378.108276 1585.693237 382.737549 1578.830811 387.266724 C 1567.651611 394.645874 1557.07251 402.99585 1544.584961 408.279175 C 1542.518311 409.154175 1540.730835 410.712524 1538.851685 412.016602 C 1532.330811 416.545776 1525.51001 420.408325 1518.239136 423.75415 C 1508.718384 428.137451 1499.685059 433.625 1490.57666 438.875 C 1474.993286 447.854126 1458.76001 455.5625 1442.547485 463.287476 C 1437.57666 465.654175 1432.501709 467.633301 1428.334961 471.375 C 1425.380859 474.025024 1425.57251 476 1428.984985 478.104126 C 1441.168335 485.616699 1453.472534 492.908325 1464.643311 501.983276 C 1470.297485 506.579224 1476.901733 509.974976 1482.82666 514.262451 C 1489.589111 519.154175 1496.064209 524.450073 1502.689209 529.537476 C 1504.501587 530.924927 1506.38916 532.212524 1508.272461 533.508301 C 1511.276733 535.574951 1514.472534 537.404175 1517.289185 539.699951 C 1525.455811 546.358276 1534.13501 552.199951 1543.130859 557.704102 C 1551.018311 562.533325 1558.293335 568.366699 1565.893311 573.675049 C 1567.755859 574.974976 1569.751709 576.150024 1571.82251 577.074951 C 1576.251709 579.041626 1580.705811 580.99585 1585.268311 582.612549 C 1591.410034 584.791626 1595.839111 588.949951 1599.843384 593.862549 C 1602.418335 597.020874 1604.601685 600.141602 1604.272461 604.487549 C 1604.19751 605.458374 1604.830811 606.516724 1605.239136 607.491699 C 1606.880859 611.404175 1608.493286 615.333374 1610.255859 619.19165 C 1611.068359 620.962524 1611.94751 622.833374 1613.255859 624.224976 C 1616.185059 627.341675 1617.818359 630.545898 1616.155762 634.908325 C 1615.255737 637.279175 1615.989258 639.429199 1618.151611 640.94165 C 1623.01001 644.345825 1622.151611 649.574951 1621.910034 654.262451 C 1621.718384 657.991699 1618.69751 659.895874 1614.76416 659.904175 C 1613.401733 659.908325 1611.972534 659.87085 1610.680786 659.49585 C 1602.022461 656.962524 1593.739136 653.583374 1586.26001 648.416626 C 1584.51001 647.208374 1582.680786 646.070801 1580.768311 645.141724 C 1574.547485 642.104126 1569.276611 637.708374 1563.793335 633.595825 C 1558.314209 629.487549 1552.772461 625.454224 1547.143311 621.5625 C 1535.501709 613.520874 1523.809937 605.5625 1512.093384 597.62915 C 1503.664185 591.920776 1495.19751 586.275024 1486.693359 580.679199 C 1480.976685 576.916626 1474.82666 573.716675 1469.501709 569.474976 C 1464.597534 565.574951 1458.726685 563.391602 1453.864136 559.708374 C 1442.339233 550.974976 1428.893311 545.75 1416.51001 538.612549 C 1408.347534 533.904175 1399.505859 530.345825 1390.864136 526.520874 C 1387.293335 524.9375 1383.180908 524.474976 1379.785034 522.637451 C 1376.164185 520.675049 1372.347534 519.970825 1368.489136 519.283325 C 1361.176636 517.983398 1353.972534 516.400024 1346.380859 516.458374 C 1338.57666 516.516602 1330.401611 516.145874 1324.285034 509.820801 C 1319.751709 508.695801 1319.097534 503.729126 1315.839233 501.287476 C 1313.659912 499.658325 1311.44751 499.9375 1310.372559 502.358398 C 1310.310059 502.49585 1310.293335 502.654175 1310.243286 502.799927 C 1307.472534 510.837524 1304.676636 518.866699 1301.934937 526.916626 C 1298.94751 535.695801 1296.047485 544.50415 1293.026611 553.275024 C 1291.44751 557.858398 1289.343262 562.287476 1288.093384 566.954224 C 1286.214233 573.970825 1283.418335 580.779175 1282.980835 588.154175 C 1282.910034 589.333374 1282.355835 590.487549 1281.984985 591.645874 C 1280.272461 596.987549 1278.51001 602.31665 1276.839233 607.670898 C 1275.343262 612.454102 1274.193359 617.362549 1272.44751 622.054199 C 1268.918335 631.512573 1267.239136 641.349976 1265.989136 651.279175 C 1265.32666 656.533325 1265.043335 661.74585 1266.297485 667.108398 C 1267.243286 671.154175 1264.035034 674.079224 1261.164185 676.625 C 1256.901611 680.412476 1251.780762 680.4375 1246.51416 679.854126 C 1244.414185 679.625 1242.285034 679.666626 1240.176636 679.516724 C 1239.13916 679.44165 1237.976685 679.466675 1237.101685 679.008301 C 1229.405884 674.970825 1221.689087 670.966675 1214.147461 666.654175 C 1211.684937 665.24585 1209.63501 663.050049 1207.543335 661.0625 C 1201.568359 655.391602 1195.593262 649.720825 1189.76416 643.895874 C 1185.939087 640.075073 1184.589233 635.270874 1185.718384 630.00415 C 1187.472534 621.820801 1189.314209 613.670776 1189.876709 605.287476 C 1189.964111 603.958374 1190.535034 602.662476 1190.851685 601.341675 C 1191.626709 598.104126 1192.397461 594.866699 1193.13916 591.625 C 1193.780762 588.829224 1193.972534 585.849976 1195.080811 583.258301 C 1197.555786 577.466675 1199.172485 571.479126 1200.484985 565.354126 C 1200.984985 563.012451 1202.339111 560.849976 1202.810059 558.508301 C 1203.651611 554.324951 1206.976685 550.68335 1205.518311 545.979126 C 1205.343384 545.408325 1205.672485 544.25415 1206.130859 543.979126 C 1208.351685 542.654175 1208.793335 540.4375 1209.526733 538.258301 C 1212.472534 529.5 1215.472534 520.758301 1218.555786 512.050049 C 1221.239136 504.470825 1224.13916 496.974976 1226.801636 489.387451 C 1229.472534 481.783325 1231.984985 474.125 1234.501709 466.470825 C 1234.82666 465.479126 1234.780762 464.362549 1234.905884 463.304199 C 1234.989136 462.545898 1234.776611 461.458374 1235.20166 461.083374 C 1239.672485 457.141602 1239.239136 451.083374 1241.626709 446.216675 C 1244.251709 440.862549 1246.95166 435.404175 1247.297485 429.033325 C 1247.484985 425.5625 1249.472534 422.108276 1251.01001 418.8125 C 1252.876587 414.8125 1254.680786 410.9375 1255.376709 406.420776 C 1255.964111 402.62085 1258.147461 399.079224 1259.530762 395.387451 C 1260.910034 391.712524 1262.005859 387.925049 1263.530884 384.31665 C 1265.468384 379.724976 1265.468384 374.445801 1268.597534 370.279175 C 1268.934937 369.833374 1268.989136 369.12085 1269.047485 368.520874 C 1269.839111 360.270874 1273.410034 352.74585 1275.455811 344.820801 C 1276.518311 340.712524 1278.193359 336.820801 1277.997559 332.466675 C 1277.976685 332.029175 1278.168335 331.56665 1278.32251 331.137451 C 1280.084961 326.170898 1281.876709 321.212524 1283.618286 316.237549 C 1284.022461 315.087524 1284.418335 313.900024 1284.559937 312.699951 C 1285.472412 304.8125 1287.718262 297.237549 1289.614136 289.55835 C 1290.505859 285.966675 1290.19751 282.091675 1291.430786 278.387451 C 1293.305786 272.758301 1294.722534 266.970825 1296.155884 261.204224 C 1297.068359 257.520874 1297.580811 253.741699 1298.422485 250.041626 C 1299.301636 246.19165 1300.739136 242.429199 1301.239136 238.541626 C 1301.864136 233.662476 1303.530762 229.412476 1306.672485 225.704224 C 1309.797485 222.008301 1309.930908 217.654175 1309.497559 213.170776 C 1309.255859 210.69165 1308.064209 209.962524 1306.285034 211.666626 C 1302.155884 215.625 1296.376709 216.783325 1292.193359 220.87085 C 1287.901611 225.0625 1282.26416 227.837524 1277.630859 231.724976 C 1272.747437 235.820801 1268.247559 240.395874 1263.772461 244.945801 C 1258.643311 250.154175 1253.505859 255.37915 1248.780762 260.94165 C 1244.251709 266.270874 1240.26001 272.054199 1236.01001 277.616699 C 1235.180786 278.699951 1234.38916 279.891724 1233.32666 280.708374 C 1229.459961 283.69165 1227.609985 287.637451 1227.285034 292.420776 C 1227.039185 296.008301 1226.026611 299.283325 1223.476685 301.987549 C 1222.660034 302.849976 1221.693359 303.916626 1221.539185 304.99585 C 1220.676636 310.99585 1216.726685 315.4375 1214.030762 320.508301 C 1213.539185 321.43335 1212.910034 322.387451 1212.780762 323.387451 C 1211.793335 331.033325 1208.51001 337.887451 1205.505859 344.845825 C 1203.776611 348.841675 1200.793335 351.525024 1196.814087 353.19165 C 1195.410034 353.779175 1193.984985 354.358398 1192.651611 355.091675 C 1184.580811 359.545776 1180.239136 356.862549 1174.176636 352.616699 C 1172.334961 351.329224 1170.45166 350.112549 1168.601685 348.841675 C 1167.722534 348.241699 1166.793335 347.679199 1166.039185 346.945801 C 1162.864136 343.837524 1162.647461 343.75415 1160.001709 347.420776 C 1157.789185 350.491699 1155.876709 353.779175 1153.768311 356.93335 C 1151.32251 360.599976 1148.755859 364.1875 1146.343384 367.875 C 1141.343384 375.529175 1136.726685 383.458374 1131.372559 390.854126 C 1125.189209 399.404175 1120.243286 408.637451 1115.280884 417.866699 C 1107.768311 431.837524 1100.472534 445.93335 1093.176636 460.020874 C 1091.709961 462.858276 1090.618286 465.891724 1089.401733 468.849976 C 1084.593262 480.537476 1079.547485 492.137451 1075.068359 503.949951 C 1069.460083 518.729126 1064.380859 533.712524 1058.930786 548.554199 C 1057.222534 553.208374 1056.597534 557.945801 1056.355835 562.845825 C 1056.230835 565.400024 1055.422485 567.929199 1054.855835 570.454102 C 1053.501709 576.512451 1052.918335 582.6875 1050.32251 588.545776 C 1048.922485 591.704224 1049.63916 595.762451 1049.180786 599.387451 C 1049.005859 600.775024 1048.584961 602.541626 1047.618286 603.337524 C 1045.168335 605.345825 1044.526611 607.791626 1044.847534 610.666626 C 1045.193359 613.80835 1044.38916 616.329102 1042.69751 619.1875 C 1040.69751 622.5625 1040.226685 626.841675 1039.093262 630.733276 C 1038.847534 631.583374 1038.780884 632.541626 1038.334961 633.266724 C 1035.614136 637.637451 1033.151733 642.237549 1029.943359 646.224976 C 1025.82666 651.337524 1021.026611 655.779175 1013.797485 656.133301 C 1010.518311 656.291626 1007.109985 655.68335 1004.093384 657.974976 C 1003.309937 658.56665 1001.372559 658.154175 1000.205811 657.645874 C 994.351685 655.087524 988.376709 652.699951 983.472534 648.400024 C 982.084961 647.18335 980.51001 646.716675 978.630859 646.31665 C 975.605835 645.666626 972.630859 644.220825 969.984985 642.55835 C 968.401611 641.56665 967.109985 640.449951 965.118286 640.520874 C 962.518311 640.608398 961.330811 639.237549 960.968262 636.670898 C 960.801636 635.5 960.026611 633.800049 959.114136 633.458374 C 955.630859 632.154175 953.343384 629.604126 950.989136 626.970825 C 947.980835 623.612549 943.880859 620.9375 944.435059 615.554199 C 940.789185 610.824951 941.51001 605.199951 941.305786 599.800049 C 941.239136 598.079224 941.843384 596.31665 942.214111 594.591675 C 942.559937 592.991699 943.797485 591.054199 943.272461 589.883301 C 941.176636 585.216675 942.684937 580.533325 942.680786 575.895874 C 942.676636 573.054199 943.589111 570.208374 944.109985 567.366699 C 944.193359 566.920776 944.601685 566.404175 944.476685 566.06665 C 942.439209 560.654175 945.843384 555.724976 945.843384 550.479126 C 945.843384 547.945801 947.205811 545.37085 947.030884 542.883301 C 946.247559 531.845825 949.880859 521.237549 949.82666 510.25415 C 949.776611 500.233276 950.476685 490.204224 951.035034 480.1875 C 951.834961 465.733276 952.76416 451.283325 953.722534 436.837524 C 954.164185 430.166626 954.818359 423.512451 955.32666 416.841675 C 955.430786 415.479126 955.51416 414.050049 955.222534 412.733276 C 954.551636 409.670776 954.234985 406.712524 955.934937 403.862549 C 956.084961 403.616699 956.126709 403.275024 956.126709 402.974976 C 956.068359 396.75 955.989136 390.525024 955.922485 384.300049 C 955.901611 382.025024 955.593384 379.708374 955.926636 377.483276 C 957.214233 368.791626 957.297485 360.166626 955.193359 351.583374 C 954.976685 350.699951 954.730835 349.770874 954.797485 348.883301 C 955.343384 341.762451 955.755859 334.625 956.614136 327.541626 C 957.380859 321.208374 956.497437 315.1875 954.476685 308.045776"/>
    </g>
</svg>
